<svg width="24" height="24" viewBox="0 0 24 24" fill="none" xmlns="http://www.w3.org/2000/svg">
<path d="M6.71992 1.91528C4.07448 1.91528 1.91992 4.06984 1.91992 6.71528V17.2753C1.91992 19.9207 4.07448 22.0753 6.71992 22.0753H17.2799C19.9254 22.0753 22.0799 19.9207 22.0799 17.2753V6.71528C22.0799 4.06984 19.9254 1.91528 17.2799 1.91528H6.71992ZM6.71992 2.87528H17.2799C19.4066 2.87528 21.1199 4.58856 21.1199 6.71528V17.2753C21.1199 19.402 19.4066 21.1153 17.2799 21.1153H6.71992C4.5932 21.1153 2.87992 19.402 2.87992 17.2753V6.71528C2.87992 4.58856 4.5932 2.87528 6.71992 2.87528ZM10.8346 5.70841C10.6501 5.6966 10.4596 5.73734 10.288 5.83778C9.83061 6.1061 9.67754 6.69472 9.94586 7.15216L10.8149 8.63528L7.99961 13.44H5.75992C5.23 13.44 4.79992 13.8701 4.79992 14.4C4.79992 14.9299 5.23 15.36 5.75992 15.36H13.1577C13.2331 14.9937 13.1871 14.5965 12.9759 14.2293L12.974 14.2275C12.7882 13.904 12.5305 13.6397 12.2305 13.44H10.2252L13.9096 7.15122C14.1774 6.69378 14.0239 6.10562 13.5665 5.83778C13.1086 5.56994 12.5209 5.72347 12.253 6.18091L11.9277 6.73591L11.6024 6.18091C11.4347 5.89501 11.1421 5.72808 10.8346 5.70841ZM13.589 9.57185L13.1924 10.2309C12.7547 10.9586 12.7405 11.8593 13.1409 12.6028L16.1634 17.7609C16.3419 18.0662 16.6623 18.2353 16.9921 18.2353C17.1567 18.2353 17.3242 18.1933 17.4768 18.104C17.9342 17.8362 18.0873 17.248 17.819 16.7906L16.9809 15.36H18.2399C18.7698 15.36 19.1999 14.9299 19.1999 14.4C19.1999 13.8701 18.7698 13.44 18.2399 13.44H15.8559L13.589 9.57185ZM7.01992 16.3218C6.75256 16.3142 6.49275 16.3556 6.24555 16.4334L6.0318 16.7972C5.76348 17.2541 5.91748 17.8428 6.37492 18.1106C6.52756 18.2004 6.69403 18.2428 6.85867 18.2428C7.18843 18.2428 7.50932 18.0723 7.68836 17.7675L8.20492 16.8862C7.92412 16.5584 7.51377 16.3362 7.02273 16.3218H7.01992Z" fill="white"/>
</svg>
