<svg width="24" height="24" viewBox="0 0 24 24" fill="none" xmlns="http://www.w3.org/2000/svg">
<path d="M4.14086 1.9292C4.13572 1.93091 4.1323 1.94118 4.12716 1.94289C4.11518 1.9446 4.09807 1.93947 4.08608 1.94289C3.99366 1.95316 3.90807 1.99082 3.83961 2.05244C3.54521 2.21333 3.36035 2.54367 3.36035 2.90141V21.2091C3.36035 21.4812 3.48017 21.767 3.70268 21.9348C3.80538 22.0495 3.96114 22.1008 4.11347 22.0717C4.31373 22.082 4.52426 22.0375 4.70227 21.9348C5.0737 21.7191 12.658 17.3339 12.658 17.3339L16.6153 15.0472C16.6238 15.0437 16.6341 15.0386 16.6426 15.0335L16.6974 15.0061C16.6974 15.0061 16.7505 14.9787 16.7522 14.9787C16.7573 14.9736 16.7607 14.9701 16.7659 14.965C16.884 14.8965 20.1258 13.0309 20.5725 12.7741C20.8806 12.5961 21.1254 12.3068 21.1203 11.9525C21.1151 11.5982 20.8652 11.3226 20.5862 11.172C20.4322 11.0899 19.4326 10.5182 18.5049 9.98073C17.5772 9.44327 16.6974 8.92636 16.6974 8.92636L12.658 6.59854C12.658 6.59854 5.31333 2.35711 4.88028 2.10721C4.72795 2.01991 4.55507 1.94974 4.38733 1.9292C4.30346 1.91893 4.22302 1.9155 4.14086 1.9292ZM4.23671 3.1068L13.1646 11.9662L4.23671 20.8256V3.1068ZM6.31806 3.94208C8.5466 5.22923 12.2198 7.35166 12.2198 7.35166L15.7526 9.39192L13.7808 11.35L6.31806 3.94208ZM16.5331 9.8438C16.7436 9.96703 17.2794 10.2786 18.0667 10.7338C18.9944 11.2713 19.9461 11.8156 20.1755 11.9388C20.1977 11.9508 20.1909 11.9577 20.2028 11.9662C20.1857 11.9782 20.1806 11.9816 20.1344 12.0073C19.7133 12.2504 16.9833 13.8353 16.5468 14.0886L14.397 11.9662L16.5331 9.8438ZM13.7808 12.5687L15.7663 14.5405L12.2198 16.5808C12.2198 16.5808 8.64246 18.645 6.33175 19.9767L13.7808 12.5687Z" fill="white"/>
</svg>
